<?xml version="1.0" standalone="no"?>
<!DOCTYPE svg PUBLIC "-//W3C//DTD SVG 20010904//EN"
 "http://www.w3.org/TR/2001/REC-SVG-20010904/DTD/svg10.dtd">
<svg version="1.0" xmlns="http://www.w3.org/2000/svg"
 width="328.000000pt" height="328.000000pt" viewBox="0 0 328.000000 328.000000"
 preserveAspectRatio="xMidYMid meet">
<metadata>
Created by potrace 1.11, written by Peter Selinger 2001-2013
</metadata>
<g transform="translate(0.000000,328.000000) scale(0.100000,-0.100000)"
fill="#000000" stroke="none">
<path d="M1628 3134 c-28 -15 -35 -38 -19 -63 5 -8 16 -11 25 -8 20 8 46 -1
46 -17 0 -6 9 -22 20 -36 22 -29 26 -51 8 -47 -9 1 -13 -10 -13 -33 0 -27 -4
-34 -16 -32 -23 3 -33 -40 -13 -54 12 -9 13 -23 8 -63 -5 -39 -3 -56 9 -69 8
-9 18 -32 22 -49 7 -37 25 -45 25 -12 0 17 3 19 14 10 17 -14 66 21 66 48 0 9
5 22 12 29 9 9 5 12 -19 12 -18 0 -35 -4 -38 -10 -7 -12 -65 -13 -65 -2 0 5 9
17 20 27 16 14 29 16 72 11 29 -4 88 -11 131 -16 63 -7 90 -16 137 -45 68 -41
85 -60 49 -53 -21 4 -24 1 -24 -25 0 -22 6 -32 23 -38 26 -10 25 -9 11 -46 -7
-20 -12 -24 -18 -14 -10 16 -36 3 -36 -19 0 -21 -110 -19 -155 3 -38 20 -50
21 -50 7 0 -17 44 -110 53 -110 4 0 26 -14 49 -30 23 -17 67 -38 97 -46 31 -9
88 -26 126 -39 39 -13 128 -31 200 -40 71 -9 132 -18 136 -20 3 -3 44 -9 90
-14 88 -10 119 -21 158 -58 19 -17 28 -20 38 -12 10 9 13 8 13 -3 0 -22 -45
-66 -74 -74 -35 -8 -33 -21 7 -37 22 -10 34 -11 39 -3 4 6 10 7 14 3 4 -3 -11
-25 -32 -47 l-39 -41 -62 7 c-84 9 -293 -39 -293 -67 0 -15 51 -7 110 17 32
13 73 18 146 18 86 1 105 4 123 20 12 11 23 17 25 15 9 -11 26 -170 26 -251 0
-117 -34 -322 -73 -438 -39 -115 -153 -311 -234 -403 -26 -29 -58 -64 -69 -78
-27 -30 -122 -105 -194 -151 -61 -39 -211 -113 -252 -123 -22 -6 -26 -3 -31
22 -3 15 -15 65 -26 110 -21 80 -30 138 -51 308 -10 88 -39 438 -38 470 0 11
-3 79 -7 151 -10 167 -7 178 42 181 21 1 39 7 41 13 3 8 8 8 18 -1 11 -9 24
-5 59 16 26 14 89 39 142 53 101 28 133 52 69 52 -28 0 -36 4 -36 18 0 34 -14
34 -42 0 l-27 -33 -1 28 c0 15 -5 27 -10 27 -17 0 -23 -29 -10 -45 16 -19 6
-32 -32 -40 -18 -4 -45 -17 -60 -28 -22 -16 -31 -18 -40 -9 -16 16 -29 15 -22
-2 5 -12 -3 -14 -42 -10 -56 5 -74 17 -67 44 4 16 0 20 -18 20 -33 0 -47 11
-45 35 0 11 -3 21 -9 23 -5 2 -16 14 -23 28 -7 13 -17 22 -22 19 -13 -8 -13
-65 0 -65 19 0 10 -18 -11 -23 -17 -5 -20 -10 -14 -29 4 -13 12 -42 18 -65 11
-40 31 -62 25 -27 -3 19 27 42 39 31 4 -5 1 -12 -7 -17 -8 -5 -16 -22 -18 -37
-1 -15 -4 -39 -5 -54 -2 -14 -12 -38 -24 -55 -12 -16 -23 -40 -25 -54 l-4 -25
-13 30 c-18 45 -50 74 -88 81 -18 3 -33 8 -33 11 0 3 9 18 21 34 11 16 16 29
11 29 -5 0 -14 -10 -21 -22 -7 -14 -9 -16 -6 -5 3 10 5 25 5 33 0 9 4 13 9 10
5 -3 12 1 15 10 10 25 7 34 -9 34 -37 0 -59 155 -27 192 13 15 12 19 -2 33
-20 21 -36 11 -36 -23 0 -44 -13 -56 -40 -40 -18 10 -24 10 -27 1 -7 -20 -31
-15 -43 7 -6 11 -7 32 -4 46 8 33 -16 30 -31 -4 -12 -28 -19 -28 -32 1 -50
105 -92 402 -63 447 8 12 10 10 10 -10 0 -36 11 -70 21 -70 5 0 9 9 9 19 0 14
5 18 20 14 15 -4 20 0 20 16 0 15 -4 19 -17 14 -17 -6 -17 -5 0 14 9 11 17 27
17 36 0 9 3 17 8 17 4 0 15 7 26 15 17 13 17 15 2 31 -16 15 -18 15 -37 -2
-19 -17 -30 -19 -101 -23 -17 0 -28 -7 -28 -15 0 -17 -60 -32 -165 -42 -75 -6
-78 -6 -62 10 9 10 17 21 17 26 0 5 9 12 20 15 28 9 28 55 1 48 -22 -6 -44 27
-35 51 7 18 49 22 60 5 4 -8 9 -7 15 2 6 10 9 7 10 -11 2 -32 2 -32 -6 -51 -4
-11 0 -18 14 -22 14 -3 19 -10 15 -21 -5 -12 0 -16 21 -16 l27 0 -21 35 c-20
34 -20 35 -1 35 10 0 22 -4 25 -10 13 -21 20 -8 17 30 -3 32 -1 40 12 40 10 0
19 -11 23 -30 7 -35 37 -38 39 -5 3 37 5 40 14 19 7 -17 14 -20 36 -16 34 6
64 31 64 53 0 11 15 21 46 29 l47 13 -6 66 c-3 36 -9 74 -12 84 -5 13 -2 17
13 17 24 0 32 -30 19 -78 -11 -44 -1 -78 19 -61 8 6 39 11 69 11 45 0 58 3 70
21 8 12 15 29 15 39 0 10 8 18 18 19 10 0 12 3 5 6 -8 3 -13 25 -13 61 0 43
-8 72 -29 117 -16 33 -30 53 -30 44 -1 -25 -71 -29 -113 -7 -37 21 -62 16 -99
-18 -14 -13 -47 -30 -75 -38 -121 -34 -283 -123 -409 -225 -38 -32 -86 -67
-106 -79 -45 -27 -72 -56 -43 -45 10 4 39 19 64 33 108 62 222 100 300 99 53
-1 54 -1 20 -11 -56 -15 -113 -28 -145 -33 -16 -3 -42 -14 -57 -25 -15 -11
-34 -20 -41 -20 -8 0 -26 -9 -40 -20 -14 -11 -28 -20 -32 -20 -3 0 -29 -17
-58 -39 -29 -21 -65 -43 -81 -48 -45 -14 -45 -33 1 -33 21 0 52 -7 68 -16 17
-9 48 -20 70 -24 31 -7 23 -8 -35 -4 -41 2 -88 7 -105 10 -23 4 -32 1 -40 -14
-5 -11 -32 -61 -59 -112 -55 -108 -113 -274 -120 -352 -5 -52 -5 -52 5 -13 60
227 177 490 204 463 4 -3 -11 -37 -32 -75 -65 -115 -136 -316 -153 -434 -5
-35 -9 -125 -8 -199 l1 -135 7 130 c14 240 59 421 146 584 67 125 67 125 139
115 90 -12 228 -10 338 5 68 10 101 11 108 4 6 -6 17 -53 24 -104 37 -251 62
-340 120 -433 38 -63 42 -98 54 -521 13 -434 20 -612 32 -715 12 -114 11 -153
-3 -173 -12 -16 -19 -16 -98 6 -175 49 -352 157 -496 303 -102 103 -159 184
-228 324 -48 96 -66 124 -66 102 0 -42 121 -253 210 -366 159 -202 426 -361
680 -407 68 -12 79 -11 58 5 -27 20 -22 28 11 21 25 -5 36 0 69 29 22 20 44
36 50 36 6 0 9 6 6 14 -3 8 -1 17 5 21 7 4 11 -7 11 -29 0 -35 -14 -49 -23
-23 -7 18 -37 -24 -34 -48 2 -16 -5 -21 -38 -25 -82 -11 0 -20 150 -16 141 3
157 5 257 39 131 44 226 90 318 152 80 54 244 205 265 244 8 14 26 40 40 56
35 40 125 189 125 207 0 8 3 18 6 21 4 4 18 33 31 64 71 174 105 493 74 687
-8 43 -8 73 -2 79 5 5 11 -2 15 -20 45 -219 35 -405 -36 -668 -70 -260 -249
-509 -496 -688 -79 -56 -266 -142 -369 -168 -101 -26 -407 -38 -492 -19 -379
84 -677 313 -850 653 -31 62 -72 159 -90 217 -42 134 -42 134 -35 76 3 -27 10
-56 14 -65 5 -9 18 -47 30 -85 23 -75 77 -188 120 -251 15 -22 39 -59 55 -82
l28 -43 -36 -42 c-19 -24 -58 -70 -86 -103 -28 -33 -51 -66 -51 -74 0 -8 12
-30 27 -50 33 -44 198 -207 242 -240 57 -42 42 -17 -20 34 -65 53 -179 171
-217 224 l-23 31 83 100 c46 55 86 100 89 100 3 0 28 -24 56 -52 161 -171 364
-293 577 -349 100 -27 123 -29 285 -29 235 0 343 23 516 110 66 33 146 79 178
101 60 42 219 195 248 239 15 24 16 24 40 4 13 -10 55 -51 92 -91 78 -81 78
-76 3 -168 -161 -198 -396 -367 -626 -450 -84 -30 -230 -65 -275 -65 -24 0
-47 -5 -51 -11 -13 -21 267 25 300 49 6 5 54 25 107 45 85 33 151 71 299 171
87 58 325 319 325 356 0 5 -42 52 -93 104 l-94 95 30 43 c115 167 181 337 222
573 16 95 8 384 -14 495 -13 67 -14 90 -5 112 14 33 5 102 -17 136 -11 17 -23
23 -39 20 -20 -4 -27 3 -50 58 -25 58 -91 163 -140 223 -70 84 -137 155 -185
194 -61 49 -238 167 -250 167 -5 0 -37 13 -72 29 -69 32 -154 56 -233 66 -92
11 -95 13 -116 63 -20 46 -43 72 -63 72 -6 -1 -23 -8 -38 -16z m-242 -168 c0
-56 -9 -66 -20 -22 -5 20 7 76 16 76 2 0 3 -24 4 -54z m202 37 c2 -9 -8 -13
-32 -13 -24 0 -36 5 -36 14 0 17 62 16 68 -1z m349 -24 c79 -22 268 -101 292
-123 9 -8 35 -25 58 -37 59 -34 191 -152 270 -244 62 -71 192 -299 179 -312
-12 -12 -35 8 -40 35 -6 25 -40 84 -114 195 -76 114 -245 271 -377 349 -100
60 -286 125 -389 136 -36 4 -61 12 -64 21 -6 17 83 8 185 -20z m-597 -12 c0
-7 -20 -18 -44 -25 -56 -15 -198 -81 -249 -116 -53 -36 -137 -78 -137 -68 0
13 159 113 240 150 57 27 157 65 188 71 1 1 2 -5 2 -12z m270 -17 c11 -21 7
-81 -11 -153 -8 -31 -14 -37 -30 -33 -10 4 -28 9 -39 12 -16 4 -20 14 -20 52
0 26 7 56 15 66 8 11 15 32 15 48 0 24 4 28 30 28 19 0 33 -7 40 -20z m248 -1
c83 -14 128 -28 228 -73 86 -39 93 -43 186 -100 86 -54 252 -223 320 -326 48
-73 108 -180 108 -193 0 -7 -99 3 -185 18 -44 8 -120 19 -170 25 -49 6 -121
22 -160 35 -38 13 -95 30 -126 39 -66 18 -139 68 -139 95 0 17 4 18 38 10 96
-22 168 5 271 99 76 70 81 90 21 77 -33 -7 -53 2 -155 69 -81 54 -103 61 -248
76 -84 9 -111 9 -122 0 -13 -11 -15 -7 -15 26 0 52 45 148 65 140 8 -3 46 -11
83 -17z m-462 -106 c21 -48 19 -110 -5 -123 -35 -18 -72 -11 -114 24 -52 41
-95 56 -164 56 -38 0 -52 3 -47 11 9 14 129 71 209 97 l60 21 23 -27 c13 -15
30 -41 38 -59z m-424 -195 c-7 -7 -12 -8 -12 -2 0 14 12 26 19 19 2 -3 -1 -11
-7 -17z m156 -9 c-2 -6 -8 -10 -13 -10 -5 0 -11 4 -13 10 -2 6 4 11 13 11 9 0
15 -5 13 -11z m-218 -22 c0 -7 -6 -22 -14 -32 -12 -16 -16 -17 -30 -6 -22 18
-20 26 7 39 30 14 37 14 37 -1z m1260 -7 c0 -5 -4 -10 -10 -10 -5 0 -10 5 -10
10 0 6 5 10 10 10 6 0 10 -4 10 -10z m0 -40 c0 -5 -4 -10 -10 -10 -5 0 -10 5
-10 10 0 6 5 10 10 10 6 0 10 -4 10 -10z m-1260 -53 c0 -18 -2 -19 -10 -7 -13
20 -13 43 0 35 6 -3 10 -16 10 -28z m507 -669 c-3 -7 -5 -2 -5 12 0 14 2 19 5
13 2 -7 2 -19 0 -25z m343 17 c10 -12 9 -15 -6 -16 -11 -1 -22 -1 -26 0 -5 0
-8 -4 -8 -11 0 -15 -15 0 -15 15 -1 27 36 35 55 12z m27 -127 c-3 -8 -6 -5 -6
6 -1 11 2 17 5 13 3 -3 4 -12 1 -19z m-347 -78 c0 -5 -4 -10 -10 -10 -5 0 -10
5 -10 10 0 6 5 10 10 10 6 0 10 -4 10 -10z m343 -45 c-6 -30 -33 -56 -33 -32
0 8 -6 17 -12 20 -18 6 9 37 32 37 13 0 16 -6 13 -25z m-293 -5 c-14 -11 -35
-30 -47 -42 l-23 -23 0 32 c0 37 20 52 65 52 l30 0 -25 -19z m307 -12 c-3 -8
-6 -5 -6 6 -1 11 2 17 5 13 3 -3 4 -12 1 -19z m-336 -75 c-12 -20 -14 -14 -5
12 4 9 9 14 11 11 3 -2 0 -13 -6 -23z m255 -59 c12 -22 25 -58 29 -82 6 -37 4
-45 -17 -62 -20 -17 -21 -21 -8 -30 8 -5 21 -8 28 -5 16 6 82 -45 82 -62 0
-19 -13 -16 -54 12 -21 14 -51 25 -70 25 -61 0 -115 -65 -117 -142 -1 -30 -2
-29 -10 11 -10 53 -32 88 -65 103 -15 7 -24 20 -24 34 0 21 3 23 27 13 42 -16
134 -8 154 12 23 23 49 73 49 94 0 9 -11 33 -25 53 -15 22 -25 51 -25 72 0 39
-1 40 46 -46z m-263 -39 c5 -69 5 -70 -13 -47 -14 16 -17 33 -13 60 11 85 18
82 26 -13z m231 -59 c-3 -9 -10 -16 -15 -16 -14 0 -11 18 4 23 10 4 10 7 0 18
-7 7 -13 18 -13 23 0 6 7 1 15 -11 8 -12 12 -28 9 -37z m-54 24 c0 -5 -4 -10
-10 -10 -5 0 -10 5 -10 10 0 6 5 10 10 10 6 0 10 -4 10 -10z m-183 -61 c12
-12 7 -39 -7 -39 -4 0 -10 11 -12 25 -6 27 1 32 19 14z m130 -25 c-3 -3 -12
-4 -19 -1 -8 3 -5 6 6 6 11 1 17 -2 13 -5z m-114 -78 c3 -7 1 -19 -4 -27 -5
-8 -9 -39 -10 -69 -1 -76 -17 -28 -18 57 -1 50 2 61 13 57 8 -3 17 -11 19 -18z
m75 -62 c-4 -3 -12 5 -18 18 -12 22 -12 22 6 6 10 -10 15 -20 12 -24z m39
-143 c-3 -26 -17 -77 -31 -111 l-26 -64 20 -21 c11 -12 17 -25 13 -28 -3 -4
-1 -7 5 -7 7 0 12 -5 12 -10 0 -24 -39 12 -59 55 -17 36 -26 45 -46 45 -14 0
-25 6 -25 14 0 9 12 13 40 11 21 -1 38 1 38 4 -1 3 10 30 25 60 15 30 27 65
27 78 0 13 3 23 6 23 4 0 4 -22 1 -49z m-107 -181 c0 -5 -4 -10 -10 -10 -5 0
-10 5 -10 10 0 6 5 10 10 10 6 0 10 -4 10 -10z m9 -208 c3 -56 3 -102 -1 -102
-5 0 -9 17 -10 38 -1 20 -3 53 -5 72 -13 139 -13 146 -2 120 6 -14 14 -71 18
-128z m211 95 c82 -41 104 -44 157 -22 19 8 37 15 38 15 2 0 5 -14 7 -30 6
-39 -21 -48 -74 -25 -58 24 -114 20 -142 -10 -13 -14 -26 -25 -29 -25 -2 0 -8
19 -11 43 -4 23 -13 55 -21 71 -8 15 -11 26 -7 24 4 -2 41 -20 82 -41z m100
-101 c0 -2 -7 -9 -15 -16 -13 -11 -14 -10 -9 4 5 14 24 23 24 12z"/>
<path d="M1640 2790 c0 -19 3 -21 12 -12 9 9 9 15 0 24 -9 9 -12 7 -12 -12z"/>
<path d="M1898 2717 c-3 -13 1 -33 9 -43 7 -10 13 -13 13 -6 0 7 10 9 29 6 16
-4 32 -1 35 5 10 16 26 14 20 -3 -6 -16 0 -21 39 -30 16 -4 27 -2 27 4 0 5 -7
10 -15 10 -8 0 -15 8 -15 18 0 30 -31 50 -86 57 -49 7 -51 6 -56 -18z"/>
<path d="M1455 2699 c-10 -15 1 -23 20 -15 9 3 13 10 10 16 -8 13 -22 13 -30
-1z"/>
<path d="M1407 2663 c-9 -9 -9 -63 1 -63 4 0 13 4 21 9 12 8 12 12 2 25 -7 8
-10 20 -6 26 7 11 -8 14 -18 3z"/>
<path d="M1961 2615 c-17 -16 -21 -29 -16 -44 6 -18 12 -21 36 -16 23 5 29 3
29 -10 0 -9 5 -15 11 -13 6 2 10 7 10 11 -1 4 -1 14 -1 22 0 9 -11 21 -25 27
-18 8 -22 14 -14 24 19 23 -6 22 -30 -1z"/>
<path d="M1280 2590 c0 -5 5 -10 10 -10 6 0 10 5 10 10 0 6 -4 10 -10 10 -5 0
-10 -4 -10 -10z"/>
<path d="M1577 2548 c-4 -12 -2 -27 3 -33 5 -6 7 -28 3 -49 l-6 -38 32 7 c20
4 31 3 31 -4 0 -6 -4 -11 -10 -11 -5 0 -10 -5 -10 -10 0 -6 11 -8 25 -4 14 3
32 1 39 -6 12 -9 17 -7 25 9 21 39 1 56 -25 21 -10 -12 -15 -12 -28 -1 -8 7
-14 22 -13 33 2 17 -10 29 -41 45 -2 1 1 10 7 21 7 13 7 22 -1 30 -17 17 -25
15 -31 -10z"/>
<path d="M545 2520 c-3 -5 3 -10 14 -10 12 0 21 5 21 10 0 6 -6 10 -14 10 -8
0 -18 -4 -21 -10z"/>
<path d="M1060 2509 c0 -5 5 -7 10 -4 6 3 10 8 10 11 0 2 -4 4 -10 4 -5 0 -10
-5 -10 -11z"/>
<path d="M1521 2504 c0 -11 3 -14 6 -6 3 7 2 16 -1 19 -3 4 -6 -2 -5 -13z"/>
<path d="M1725 2500 c-10 -16 14 -50 36 -50 25 0 35 25 19 45 -14 17 -46 20
-55 5z"/>
<path d="M1720 2405 c0 -8 7 -15 15 -15 8 0 15 7 15 15 0 8 -7 15 -15 15 -8 0
-15 -7 -15 -15z"/>
<path d="M1526 2361 c-4 -6 -3 -18 2 -27 8 -15 10 -14 16 2 8 20 -8 42 -18 25z"/>
<path d="M1700 2315 c0 -14 5 -25 10 -25 6 0 10 11 10 25 0 14 -4 25 -10 25
-5 0 -10 -11 -10 -25z"/>
<path d="M1370 2296 c0 -7 9 -16 21 -19 20 -5 20 -5 3 14 -20 23 -24 23 -24 5z"/>
<path d="M2116 2285 c-3 -9 -6 -22 -5 -28 0 -7 5 -1 10 12 5 13 8 26 5 28 -2
2 -6 -3 -10 -12z"/>
<path d="M2000 2280 c0 -5 5 -10 10 -10 6 0 10 5 10 10 0 6 -4 10 -10 10 -5 0
-10 -4 -10 -10z"/>
<path d="M1950 2245 c0 -15 2 -17 9 -6 5 7 15 17 22 22 10 6 7 8 -9 6 -15 -1
-22 -8 -22 -22z"/>
<path d="M1290 2236 c0 -15 18 -31 26 -23 7 7 -7 37 -17 37 -5 0 -9 -6 -9 -14z"/>
<path d="M1660 2226 c0 -8 4 -17 10 -21 5 -3 7 -12 4 -19 -3 -7 2 -21 12 -30
15 -16 17 -16 30 1 20 26 17 50 -8 67 -28 20 -48 20 -48 2z"/>
<path d="M2055 2230 c-3 -5 -12 -7 -20 -3 -10 3 -15 -1 -15 -11 0 -14 4 -15
21 -6 11 7 22 10 25 8 2 -2 0 -29 -5 -59 -10 -64 -7 -74 18 -51 13 13 16 23 9
41 -5 13 -6 26 -3 29 11 11 35 10 35 -1 0 -7 4 -6 10 3 5 8 13 11 17 6 4 -4 0
-13 -10 -20 -9 -7 -17 -22 -17 -33 0 -10 -5 -24 -11 -30 -7 -7 -9 -19 -5 -28
5 -14 9 -15 22 -4 13 10 17 10 24 -1 12 -20 20 -9 13 18 -3 12 -12 22 -19 22
-19 0 -18 29 1 36 8 4 15 15 15 26 0 10 5 16 10 13 6 -3 10 5 10 19 0 19 -4
24 -16 19 -9 -3 -20 0 -25 8 -8 12 -10 12 -19 -1 -7 -12 -12 -12 -22 -2 -14
14 -35 16 -43 2z"/>
<path d="M1362 2208 c-14 -14 -16 -44 -3 -52 5 -4 16 -3 25 0 13 5 14 9 5 20
-6 8 -9 21 -5 29 7 18 -5 20 -22 3z"/>
<path d="M1490 2210 c-1 -8 -2 -19 -1 -23 1 -5 -8 -6 -19 -2 -16 5 -20 2 -20
-14 0 -22 10 -25 48 -15 15 4 19 10 13 18 -5 6 -11 20 -14 31 -3 13 -5 15 -7
5z"/>
<path d="M1626 2151 c-9 -15 23 -36 36 -23 5 5 7 15 4 21 -9 13 -33 14 -40 2z"/>
<path d="M1380 2127 c0 -8 9 -22 20 -32 24 -21 28 -1 6 28 -16 20 -26 22 -26
4z"/>
<path d="M1677 2103 c-13 -13 -7 -21 13 -16 11 3 17 9 14 14 -6 11 -18 12 -27
2z"/>
<path d="M2080 2040 c0 -5 5 -10 11 -10 5 0 7 5 4 10 -3 6 -8 10 -11 10 -2 0
-4 -4 -4 -10z"/>
<path d="M432 1910 c0 -19 2 -27 5 -17 2 9 2 25 0 35 -3 9 -5 1 -5 -18z"/>
<path d="M2270 1890 c0 -12 8 -12 35 0 18 8 17 9 -7 9 -16 1 -28 -3 -28 -9z"/>
<path d="M1848 1853 c7 -3 16 -2 19 1 4 3 -2 6 -13 5 -11 0 -14 -3 -6 -6z"/>
<path d="M424 1720 c0 -69 1 -97 3 -62 2 34 2 90 0 125 -2 34 -3 6 -3 -63z"/>
<path d="M433 1535 c0 -22 2 -30 4 -17 2 12 2 30 0 40 -3 9 -5 -1 -4 -23z"/>
<path d="M471 1538 c-1 -32 20 -146 35 -187 11 -32 15 1 4 34 -7 20 -18 71
-25 113 -9 53 -13 66 -14 40z"/>
<path d="M442 1465 c0 -16 2 -22 5 -12 2 9 2 23 0 30 -3 6 -5 -1 -5 -18z"/>
<path d="M526 1300 c3 -14 10 -29 15 -34 14 -16 10 6 -7 34 l-15 25 7 -25z"/>
<path d="M2335 571 c-12 -15 -16 -29 -11 -51 6 -34 -16 -52 -37 -31 -9 10 -8
15 6 25 18 14 23 36 7 36 -20 0 -40 -46 -34 -78 4 -18 10 -32 14 -32 4 0 15
-18 25 -40 17 -38 37 -51 50 -31 3 5 -6 22 -20 37 -26 28 -30 64 -8 71 6 2 22
-14 35 -36 26 -45 30 -48 48 -26 7 9 8 15 2 15 -14 0 -46 52 -45 73 1 9 -5 17
-13 17 -20 0 -18 27 4 39 12 7 14 13 6 21 -7 7 -16 5 -29 -9z"/>
<path d="M872 503 c-7 -43 -12 -84 -12 -90 0 -21 22 -15 53 15 l29 27 -7 -47
c-4 -27 -3 -48 1 -48 5 0 29 19 54 41 25 22 53 45 64 51 17 9 18 7 12 -18 -4
-15 -16 -46 -27 -68 -24 -49 -24 -56 -1 -56 13 0 21 11 28 38 7 27 15 38 32
40 17 3 22 -1 22 -20 0 -13 -7 -33 -15 -44 -19 -25 -19 -40 0 -47 22 -9 53 96
35 117 -7 9 -21 16 -32 16 -15 0 -18 4 -13 18 13 32 10 47 -10 48 -11 1 -28 5
-37 9 -12 5 -18 3 -18 -7 0 -13 -49 -68 -61 -68 -3 0 -2 26 2 57 4 31 6 61 3
65 -8 13 -24 -1 -24 -21 0 -10 -11 -28 -25 -41 l-25 -23 0 45 c0 28 5 48 13
51 9 3 9 7 -2 20 -7 10 -17 17 -20 17 -4 0 -13 -35 -19 -77z"/>
<path d="M2410 560 c-11 -11 -20 -29 -20 -39 0 -24 29 -57 57 -66 27 -8 63 25
62 58 l0 22 -11 -22 c-12 -25 -31 -35 -53 -27 -22 9 -19 22 12 48 15 13 23 28
19 34 -11 18 -44 14 -66 -8z m38 -12 c-3 -7 -13 -15 -24 -17 -16 -3 -17 -1 -5
13 16 19 34 21 29 4z"/>
<path d="M2191 416 c-14 -14 -18 -26 -12 -30 5 -4 15 3 21 15 11 20 13 20 28
5 16 -16 16 -18 0 -27 -30 -17 -40 -45 -23 -63 14 -14 20 -13 55 5 44 23 45
24 29 42 -5 7 -19 27 -29 45 -23 38 -39 40 -69 8z m65 -57 c8 -14 -11 -33 -25
-25 -11 7 -4 36 9 36 5 0 12 -5 16 -11z"/>
<path d="M1200 405 c0 -9 5 -15 11 -13 6 2 11 8 11 13 0 5 -5 11 -11 13 -6 2
-11 -4 -11 -13z"/>
<path d="M2036 403 c-11 -11 -6 -23 9 -23 8 0 15 4 15 9 0 13 -16 22 -24 14z"/>
<path d="M2123 386 c-27 -13 -27 -15 -8 -52 8 -16 15 -39 15 -52 0 -20 4 -22
23 -16 31 9 33 13 14 27 -20 15 -35 77 -18 77 6 0 11 7 11 15 0 17 -6 17 -37
1z"/>
<path d="M1943 373 c-30 -6 -73 -58 -73 -89 0 -37 51 -87 89 -87 44 0 82 38
74 76 -3 17 -12 27 -22 27 -27 0 -32 -11 -16 -33 24 -34 -12 -59 -59 -41 -8 3
-20 21 -26 40 -16 47 7 84 50 84 17 0 30 -4 30 -10 0 -5 5 -10 10 -10 18 0 11
29 -9 40 -11 5 -21 9 -23 9 -2 -1 -13 -4 -25 -6z"/>
<path d="M1168 318 c-16 -49 -16 -68 1 -68 6 0 41 95 41 113 0 4 -6 7 -12 7
-7 0 -21 -23 -30 -52z"/>
<path d="M1240 345 c-7 -8 -10 -15 -7 -15 4 0 0 -17 -8 -39 -10 -28 -10 -42
-2 -50 18 -18 27 -13 27 18 0 39 9 61 26 61 18 0 18 8 0 26 -18 18 -21 17 -36
-1z"/>
<path d="M2046 351 c-3 -4 3 -25 14 -45 10 -21 16 -44 13 -52 -5 -15 5 -18 30
-8 13 5 13 9 1 32 -8 15 -19 39 -24 55 -9 27 -24 35 -34 18z"/>
<path d="M1560 273 c0 -38 -3 -78 -6 -90 -5 -19 -2 -23 15 -23 19 0 21 4 15
38 -4 29 -2 43 11 55 26 26 38 10 33 -44 -4 -43 -3 -49 13 -49 16 0 19 8 19
55 0 43 -4 56 -19 65 -11 5 -27 7 -35 4 -12 -5 -16 1 -16 25 0 21 -5 31 -15
31 -12 0 -15 -14 -15 -67z"/>
<path d="M1305 305 c-29 -28 -31 -51 -9 -83 15 -22 38 -27 68 -16 27 10 18 21
-13 16 -23 -3 -30 1 -36 17 -10 32 1 41 37 30 48 -13 60 6 25 37 -35 30 -42
30 -72 -1z m50 -5 c3 -5 -1 -10 -10 -10 -9 0 -13 5 -10 10 3 6 8 10 10 10 2 0
7 -4 10 -10z"/>
<path d="M860 313 c0 -12 107 -78 185 -114 112 -52 115 -53 120 -47 3 3 -37
26 -89 51 -52 25 -120 61 -150 81 -59 38 -66 41 -66 29z"/>
<path d="M1494 298 c-5 -7 -9 -38 -9 -68 0 -51 2 -55 25 -58 20 -3 23 -1 13 9
-19 19 -16 76 4 87 15 9 15 11 1 26 -20 19 -23 20 -34 4z"/>
<path d="M1701 263 c-41 -51 22 -136 67 -91 17 17 15 33 -2 19 -16 -14 -42 -5
-50 16 -9 23 2 33 40 33 38 0 47 22 15 40 -31 16 -48 12 -70 -17z m54 -3 c3
-5 -3 -10 -14 -10 -12 0 -21 5 -21 10 0 6 6 10 14 10 8 0 18 -4 21 -10z"/>
<path d="M1180 146 c0 -2 9 -6 20 -9 11 -3 18 -1 14 4 -5 9 -34 13 -34 5z"/>
<path d="M1245 123 c11 -11 133 -39 214 -49 38 -4 52 -3 47 5 -4 6 -22 11 -39
11 -31 1 -158 22 -207 36 -16 4 -22 3 -15 -3z"/>
<path d="M1663 73 c9 -2 23 -2 30 0 6 3 -1 5 -18 5 -16 0 -22 -2 -12 -5z"/>
</g>
</svg>
